<?xml version="1.0" encoding="UTF-8" standalone="no"?>
<svg
   xmlns:dc="http://purl.org/dc/elements/1.1/"
   xmlns:cc="http://creativecommons.org/ns#"
   xmlns:rdf="http://www.w3.org/1999/02/22-rdf-syntax-ns#"
   xmlns:svg="http://www.w3.org/2000/svg"
   xmlns="http://www.w3.org/2000/svg"
   id="svg42"
   viewBox="0 0 1124.9998 882.15875"
   version="1.1"
   height="882.15875pt"
   width="1124.9998pt">
  <metadata
     id="metadata48">
    <rdf:RDF>
      <cc:Work
         rdf:about="">
        <dc:format>image/svg+xml</dc:format>
        <dc:type
           rdf:resource="http://purl.org/dc/dcmitype/StillImage" />
        <dc:title></dc:title>
      </cc:Work>
    </rdf:RDF>
  </metadata>
  <defs
     id="defs46">
    <style
       id="style940"><![CDATA[
.dark-orange {
  stroke:none;
  stroke-dasharray:none;
  stroke-miterlimit:4;
}
.light-orange {
  stroke:none;
  stroke-dasharray:none;
  stroke-miterlimit:4;
}
]]></style>
  </defs>
  <g
     transform="translate(-37.4997,-167.94857)"
     id="g40">
    <path
       id="path30"
       d="m 1050,300 h -18.75 c -4.9727,0 -9.7422,1.9766 -13.258,5.4922 -3.5156,3.5156 -5.4922,8.2852 -5.4922,13.258 v 18.75 c -29.828,0.0312 -58.426,11.891 -79.516,32.984 -21.094,21.09 -32.953,49.688 -32.984,79.516 v 56.25 c 0,14.918 5.9258,29.227 16.477,39.773 10.547,10.551 24.855,16.477 39.773,16.477 h 18.75 v 37.5 h -131.25 v -112.5 c 0,-14.918 -5.9258,-29.227 -16.477,-39.773 -10.547,-10.551 -24.855,-16.477 -39.773,-16.477 h -63.414 l 19.07,-38.137 c 37.715,-3.875 70.965,-26.422 88.516,-60.027 17.555,-33.605 17.062,-73.777 -1.3047,-106.95 -18.367,-33.164 -52.16,-54.895 -89.957,-57.844 -37.801,-2.9531 -74.555,13.27 -97.848,43.184 -23.293,29.914 -30.012,69.523 -17.887,105.45 12.125,35.927 41.473,63.355 78.129,73.035 l -20.625,41.25 h -7.1797 c -23.512,-3.707 -45.184,-14.945 -61.762,-32.023 -3.5156,-3.5039 -8.2773,-5.4727 -13.238,-5.4727 -4.9607,0 -9.7227,1.9688 -13.238,5.4727 -16.574,17.09 -38.246,28.344 -61.762,32.062 h -7.1641 l -20.625,-41.25 c 36.406,-9.6562 65.539,-36.941 77.555,-72.637 12.02,-35.695 5.3242,-75.039 -17.828,-104.75 -23.152,-29.707 -59.668,-45.816 -97.219,-42.887 -37.551,2.9336 -71.125,24.512 -89.383,57.457 -18.262,32.941 -18.773,72.848 -1.3594,106.25 17.41,33.398 50.422,55.828 87.887,59.719 l 19.051,38.102 h -63.414 c -14.918,0 -29.227,5.9258 -39.773,16.477 -10.551,10.547 -16.477,24.855 -16.477,39.773 v 112.5 h -131.25 v -37.5 h 18.75 c 14.918,0 29.227,-5.9258 39.773,-16.477 10.551,-10.547 16.477,-24.855 16.477,-39.773 v -56.25 c -0.0312,-29.828 -11.891,-58.426 -32.984,-79.516 -21.09,-21.094 -49.688,-32.953 -79.516,-32.984 v -18.75 c 0,-4.9727 -1.9766,-9.7422 -5.4922,-13.258 -3.5156,-3.5156 -8.2852,-5.4922 -13.258,-5.4922 h -18.75 c -29.828,0.0312 -58.426,11.891 -79.516,32.984 -21.094,21.09 -32.953,49.688 -32.984,79.516 v 93.75 c 0,14.918 5.9258,29.227 16.477,39.773 10.547,10.551 24.855,16.477 39.773,16.477 h 18.75 v 131.25 c 0,4.9727 1.9766,9.7422 5.4922,13.258 3.5156,3.5156 8.2852,5.4922 13.258,5.4922 h 225 v 37.5 h -131.25 c -4.9727,0 -9.7422,1.9766 -13.258,5.4922 -3.5156,3.5156 -5.4922,8.2852 -5.4922,13.258 v 225 c -0.0195,3.5 0.94141,6.9375 2.7734,9.918 1.832,2.9844 4.4648,5.3906 7.5938,6.957 l 75,37.5 c 5.832,2.9141 12.754,2.5898 18.285,-0.8516 5.5352,-3.4414 8.8828,-9.5078 8.8477,-16.023 V 862.50484 h 562.5 v 168.74996 c -0.0352,6.5156 3.3125,12.582 8.8477,16.023 5.5312,3.4414 12.453,3.7656 18.285,0.8516 l 75,-37.5 c 3.1289,-1.5664 5.7617,-3.9727 7.5938,-6.957 1.832,-2.9805 2.793,-6.418 2.7734,-9.918 v -225 c 0,-4.9727 -1.9766,-9.7422 -5.4922,-13.258 -3.5156,-3.5156 -8.2852,-5.4922 -13.258,-5.4922 h -131.25 v -37.5 h 225 c 4.9727,0 9.7422,-1.9766 13.258,-5.4922 3.5156,-3.5156 5.4922,-8.2852 5.4922,-13.258 v -131.25 h 18.75 c 14.918,0 29.227,-5.9258 39.773,-16.477 10.551,-10.547 16.477,-24.855 16.477,-39.773 v -93.75 c -0.031,-29.828 -11.891,-58.426 -32.984,-79.516 -21.09,-21.094 -49.688,-32.953 -79.516,-32.984 z m -768.75,700.91 -37.5,-18.75 V 862.5 h 37.5 z m 75,-175.91 h -112.5 v -37.5 h 112.5 z M 93.75,525 c -4.9727,0 -9.7422,-1.9766 -13.258,-5.4922 -3.5156,-3.5156 -5.4922,-8.2852 -5.4922,-13.258 v -18.75 h 37.5 v -37.5 h -37.5 v -37.5 c 0,-19.891 7.9023,-38.969 21.969,-53.031 14.062,-14.066 33.141,-21.969 53.031,-21.969 v 187.5 z M 187.5,675 H 150 V 562.5 h 37.5 z m 0,-150 V 375 c 19.891,0 38.969,7.9023 53.031,21.969 C 254.597,411.031 262.5,430.11 262.5,450 v 56.25 c 0,4.9727 -1.9766,9.7422 -5.4922,13.258 -3.5156,3.5156 -8.2852,5.4922 -13.258,5.4922 z M 356.25,675 H 225 v -37.5 h 131.25 z m 300,-393.75 c 0,-19.891 7.9023,-38.969 21.969,-53.031 14.062,-14.066 33.141,-21.969 53.031,-21.969 19.89,0 38.969,7.9023 53.031,21.969 14.066,14.062 21.969,33.141 21.969,53.031 0,19.89 -7.9023,38.969 -21.969,53.031 -14.062,14.066 -33.141,21.969 -53.031,21.969 -19.89,0 -38.969,-7.9023 -53.031,-21.969 C 664.153,320.219 656.25,301.14 656.25,281.25 Z m -187.5,75 c -19.891,0 -38.969,-7.9023 -53.031,-21.969 -14.066,-14.062 -21.969,-33.141 -21.969,-53.031 0,-19.89 7.9023,-38.969 21.969,-53.031 14.062,-14.066 33.141,-21.969 53.031,-21.969 19.89,0 38.969,7.9023 53.031,21.969 14.066,14.062 21.969,33.141 21.969,53.031 0,19.89 -7.9023,38.969 -21.969,53.031 -14.062,14.066 -33.141,21.969 -53.031,21.969 z M 712.5,825 h -225 V 600 h 225 z m 93.75,0 H 750 V 581.25 c 0,-4.9727 -1.9766,-9.7422 -5.4922,-13.258 -3.5156,-3.5156 -8.2852,-5.4922 -13.258,-5.4922 h -262.5 c -4.9727,0 -9.7422,1.9766 -13.258,5.4922 -3.5156,3.5156 -5.4922,8.2852 -5.4922,13.258 V 825 h -56.25 V 487.5 c 0,-4.9727 1.9766,-9.7422 5.4922,-13.258 3.5156,-3.5156 8.2852,-5.4922 13.258,-5.4922 h 112.5 c 27.715,-2.1094 54.012,-13.09 75,-31.312 20.988,18.223 47.285,29.203 75,31.312 h 112.5 c 4.9727,0 9.7422,1.9766 13.258,5.4922 3.5156,3.5156 5.4922,8.2852 5.4922,13.258 z m 150,157.16 -37.5,18.75 V 862.5 h 37.5 z m 0,-194.66 V 825 H 843.75 V 787.5 Z M 975,675 H 843.75 V 637.5 H 975 Z M 956.25,525 c -4.9727,0 -9.7422,-1.9766 -13.258,-5.4922 -3.5156,-3.5156 -5.4922,-8.2852 -5.4922,-13.258 v -56.25 c 0,-19.891 7.9023,-38.969 21.969,-53.031 14.062,-14.066 33.141,-21.969 53.031,-21.969 v 150 z M 1050,675 h -37.5 V 562.5 h 37.5 z m 75,-225 h -37.5 v 37.5 h 37.5 v 18.75 c 0,4.9727 -1.9766,9.7422 -5.4922,13.258 -3.5156,3.5156 -8.2852,5.4922 -13.258,5.4922 h -56.25 v -187.5 c 19.891,0 38.969,7.9023 53.031,21.969 14.066,14.062 21.969,33.141 21.969,53.031 z" />
    <path
       id="path32"
       d="m 543.75,656.25 h 112.5 v 37.5 h -112.5 z" />
    <path
       id="path34"
       d="m 525,731.25 h 150 v 37.5 H 525 Z" />
    <path
       id="path36"
       d="m 450,243.75 h 37.5 v 37.5 H 450 Z" />
    <path
       id="path38"
       d="M 712.5,243.75 H 750 v 37.5 h -37.5 z" />
  </g>
  <path
     id="path56"
     d="m 356.81086,484.27603 0.64089,-171.46473 6.53771,-5.62266 6.5377,-5.62265 h 63.02887 c 76.88321,0 90.21948,-2.65235 120.78407,-24.02179 l 8.15047,-5.69847 9.32526,6.38592 c 30.68019,21.00978 42.59757,23.33434 119.62874,23.33434 h 63.02888 l 6.53767,5.62265 6.53775,5.62266 0.64088,171.46473 0.64087,171.4647 H 740.81107 712.79152 V 530.92737 c 0,-76.95865 -0.87449,-126.44744 -2.28087,-129.0753 -4.75768,-8.88983 -12.97361,-9.41229 -148.01035,-9.41229 -135.03675,0 -143.25266,0.52246 -148.01035,9.41229 -1.40639,2.62786 -2.28091,52.11665 -2.28091,129.0753 v 124.81336 h -28.01953 -28.01953 z"
     style="fill:#ff6600;fill-opacity:0.995968;stroke-width:189.343"
     class="dark-orange" />
  <path
     id="path881"
     d="m 43.947787,349.4389 c -4.56096,-4.56096 -5.719335,-8.10043 -5.719335,-17.47573 v -11.7564 H 56.86923 75.510007 V 300.40094 280.59511 H 56.617755 37.725495 l 0.834007,-26.26263 c 0.766065,-24.12322 1.45947,-27.53315 8.51199,-41.85881 10.921688,-22.18501 30.193958,-36.75128 53.487058,-40.42631 l 9.90291,-1.56242 v 92.33664 92.33664 H 80.064285 c -29.166743,0 -30.62868,-0.23151 -36.116498,-5.71932 z"
     style="fill:#ff6600;fill-opacity:0.995968;stroke-width:588.252"
     class="dark-orange" />
  <path
     id="path883"
     d="m 1014.5391,262.82158 v -92.33664 l 9.9029,1.56242 c 23.1702,3.65563 42.572,18.25465 53.3466,40.14108 6.8517,13.91754 7.6301,17.72696 8.5538,41.8588 l 1.0162,26.54787 h -18.934 -18.934 v 19.80583 19.80583 h 18.6408 18.6407 v 11.7564 c 0,9.3753 -1.1584,12.91477 -5.7193,17.47573 -5.4878,5.48781 -6.9498,5.71932 -36.1165,5.71932 h -30.3972 z"
     style="fill:#ff6600;fill-opacity:0.995968;stroke-width:588.252"
     class="dark-orange" />
  <path
     id="path885"
     d="M 208.32554,638.26505 V 620.7893 h 54.75728 54.75729 v 17.47575 17.47568 h -54.75729 -54.75728 z"
     style="fill:#ff6600;fill-opacity:0.995968;stroke-width:588.252"
     class="dark-orange" />
  <path
     id="path887"
     d="m 224.05369,822.19595 -15.72815,-8.07285 v -59.38537 -59.3853 h 17.47573 17.47573 v 67.57275 c 0,37.16505 -0.78641,67.5213 -1.74758,67.45822 -0.96116,-0.063 -8.82524,-3.74737 -17.47573,-8.18745 z"
     style="fill:#ff6600;fill-opacity:0.995968;stroke-width:588.252"
     class="dark-orange" />
  <path
     id="path889"
     d="M 807.1605,638.26505 V 620.7893 h 54.75727 54.75728 v 17.47575 17.47568 H 861.91777 807.1605 Z"
     style="fill:#ff6600;fill-opacity:0.995968;stroke-width:588.252"
     class="dark-orange" />
  <path
     id="path891"
     d="m 881.72362,762.92518 v -67.57275 h 17.47568 17.47575 v 59.38815 59.38815 l -16.2525,8.18467 c -8.93888,4.50158 -16.80293,8.1846 -17.47575,8.1846 -0.67275,0 -1.22318,-30.40777 -1.22318,-67.57282 z"
     style="fill:#ff6600;fill-opacity:0.995968;stroke-width:588.252"
     class="dark-orange" />
  <path
     id="path893"
     d="m 807.1605,489.1388 v -17.47573 h 64.07767 64.07768 v 17.47573 17.47574 H 871.23817 807.1605 Z"
     style="fill:#ff6600;fill-opacity:0.995968;stroke:none;stroke-width:588.252;stroke-miterlimit:4;stroke-dasharray:none" />
  <path
     id="path895"
     d="m 977.25757,450.6922 v -55.92233 h 17.47575 17.47578 v 55.92233 55.92234 h -17.47578 -17.47575 z"
     style="fill:#ff6600;fill-opacity:0.995968;stroke:none;stroke-width:588.252;stroke-miterlimit:4;stroke-dasharray:none" />
  <path
     id="path897"
     d="m 907.41397,350.5573 c -6.87247,-6.87247 -7.71607,-13.37784 -6.59602,-50.86684 0.84383,-28.24459 1.87748,-36.1489 5.90235,-45.13574 10.26337,-22.91662 34.86217,-42.2556 57.73613,-45.39083 l 10.47104,-1.43521 v 73.71477 73.71477 H 943.4712 c -28.21448,0 -31.9305,-0.47417 -36.05723,-4.60092 z"
     style="fill:#ff6600;fill-opacity:0.995968;stroke-width:588.252"
     class="dark-orange" />
  <path
     id="path899"
     d="m 112.79156,450.6922 v -55.92233 h 17.47573 17.47573 v 55.92233 55.92234 h -17.47573 -17.47573 z"
     style="fill:#ff6600;fill-opacity:0.995968;stroke:none;stroke-width:588.252;stroke-miterlimit:4;stroke-dasharray:none" />
  <path
     id="path901"
     d="m 189.68476,489.1388 v -17.47573 h 64.07767 64.07768 v 17.47573 17.47574 h -64.07768 -64.07767 z"
     style="fill:#ff6600;fill-opacity:0.995968;stroke:none;stroke-width:588.252;stroke-miterlimit:4;stroke-dasharray:none" />
  <path
     id="path903"
     d="M 150.07312,281.76016 V 208.3621 h 5.73783 c 10.58797,0 32.23793,9.86432 42.58711,19.40386 21.53041,19.84604 27.07634,38.60599 25.85163,87.44709 -1.0261,40.92074 0.0236,39.94517 -42.9784,39.94517 h -31.19817 z"
     style="fill:#ff8a3c;fill-opacity:0.995968;stroke:none;stroke-width:588.252;stroke-miterlimit:4;stroke-dasharray:none" />
  <path
     id="path905"
     d="M 450.65564,543.89608 V 432.05143 H 562.5003 674.34496 V 543.89608 655.74073 H 562.5003 450.65564 Z m 188.73786,38.44657 v -19.80579 h -76.8932 -76.8932 v 19.80579 19.80585 h 76.8932 76.8932 z M 620.75272,507.77958 V 487.97376 H 562.5003 504.24787 v 19.80582 19.80583 h 58.25243 58.25242 z"
     style="fill:#ffa05f;fill-opacity:0.995968;stroke:none;stroke-width:588.252;stroke-miterlimit:4;stroke-dasharray:none" />
  <path
     id="path907"
     d="M 450.65564,543.89608 V 432.05143 H 562.5003 674.34496 V 543.89608 655.74073 H 562.5003 450.65564 Z m 188.73786,38.44657 v -19.80579 h -76.8932 -76.8932 v 19.80579 19.80585 h 76.8932 76.8932 z M 620.75272,507.77958 V 487.97376 H 562.5003 504.24787 v 19.80582 19.80583 h 58.25243 58.25242 z"
     style="fill:#ffc69e;fill-opacity:0.995968;stroke-width:588.252"
     class="light-orange" />
  <path
     id="path909"
     d="m 189.68476,489.1388 v -17.47573 h 64.07767 64.07768 v 17.47573 17.47574 h -64.07768 -64.07767 z"
     style="fill:#ffc69e;fill-opacity:0.995968;stroke:none;stroke-width:588.252;stroke-miterlimit:4;stroke-dasharray:none" />
  <path
     id="path911"
     d="m 807.1605,489.1388 v -17.47573 h 64.07767 64.07768 v 17.47573 17.47574 H 871.23817 807.1605 Z"
     style="fill:#ffc69e;fill-opacity:0.995968;stroke:none;stroke-width:588.252;stroke-miterlimit:4;stroke-dasharray:none" />
  <path
     id="path921"
     d="m 150.07312,281.57503 v -73.5832 l 7.57281,1.56243 c 24.30135,5.01386 46.77402,21.84556 57.01798,42.70561 6.16214,12.54811 6.51293,15.05955 7.2125,51.63621 0.57759,30.19875 0.0357,39.38804 -2.52606,42.83502 -4.06259,5.46648 -19.25385,8.10475 -47.72384,8.28822 l -21.55339,0.1389 z"
     style="fill:#ff6500;fill-opacity:0.996078;stroke-width:588.252"
     class="dark-orange" />
  <path
     id="path925"
     d="m 979.84312,449.65486 v -54.3717 h 14.82863 14.82865 v 54.3717 54.3717 h -14.82865 -14.82863 z"
     style="fill:#ffc59d;fill-opacity:1;stroke:none;stroke-width:831.915;stroke-miterlimit:4;stroke-dasharray:none" />
  <path
     id="path927"
     d="m 113.19109,449.65486 v -54.3717 h 16.47628 16.47628 v 54.3717 54.3717 h -16.47628 -16.47628 z"
     style="fill:#ff6500;fill-opacity:0.996078;stroke-width:831.915"
     class="dark-orange" />
  <path
     id="path929"
     d="m 190.73725,489.32227 v -16.31068 h 62.91262 62.91262 v 16.31068 16.31067 h -62.91262 -62.91262 z"
     style="fill:#ff6500;fill-opacity:0.996078;stroke-width:1176.5"
     class="dark-orange" />
  <path
     id="path931"
     d="m 810.54307,489.32227 v -16.31068 h 60.58253 60.58252 v 16.31068 16.31067 H 871.1256 810.54307 Z"
     style="fill:#ff6500;fill-opacity:0.996078;stroke-width:1176.5"
     class="dark-orange" />
  <path
     id="path933"
     d="m 982.97025,449.71061 v -51.26213 h 11.6505 11.65045 v 51.26213 51.26214 h -11.65045 -11.6505 z"
     style="fill:#ff6500;fill-opacity:0.996078;stroke-width:1176.5"
     class="dark-orange" />
  <path
     id="path935"
     d="m 402.77608,179.68642 c -15.07821,-6.15132 -34.08655,-27.7977 -39.91314,-45.45244 -11.42882,-34.629655 5.73972,-70.663652 41.12591,-86.31664 60.27869,-26.664135 119.97046,36.930248 91.32509,97.29589 -15.01899,31.65017 -59.15483,48.09213 -92.53786,34.47319 z M 451.70812,93.20576 V 72.234883 h -20.97087 -20.97087 v 20.970877 20.97087 h 20.97087 20.97087 z"
     style="fill:#ffc69d;fill-opacity:1;stroke-width:1176.5"
     class="light-orange" />
  <path
     id="path937"
     d="m 658.17492,174.96422 c -41.11218,-25.06768 -48.41743,-78.314182 -15.2895,-111.44211 29.07199,-29.071995 67.0763,-30.099442 97.47588,-2.63526 49.11637,44.37368 19.48342,123.15785 -46.32308,123.15785 -12.5841,0 -26.92672,-3.6315 -35.8633,-9.08048 z m 54.5041,-81.75846 V 72.234883 h -20.9709 -20.97087 v 20.970877 20.97087 h 20.97087 20.9709 z"
     style="fill:#ffc69d;fill-opacity:1;stroke-width:1176.5"
     class="light-orange" />
</svg>
