<svg viewBox="0 0 16 16" xmlns="http://www.w3.org/2000/svg"><path d="M14.4 3.605h-.267a.267.267 0 0 0-.267.267v.266a1.601 1.601 0 0 0-1.6 1.6v.8a.8.8 0 0 0 .8.8h.267v.534h-1.867v-1.6a.8.8 0 0 0-.8-.8h-.902l.272-.543a1.605 1.605 0 1 0-.574-.044l-.294.586h-.102a1.563 1.563 0 0 1-.878-.455.267.267 0 0 0-.377 0 1.564 1.564 0 0 1-.878.456h-.102l-.293-.587a1.595 1.595 0 1 0-.574.045l.271.542h-.902a.8.8 0 0 0-.8.8v1.6H2.667v-.534h.266a.8.8 0 0 0 .8-.8v-.8a1.601 1.601 0 0 0-1.6-1.6v-.266a.267.267 0 0 0-.266-.267H1.6a1.601 1.601 0 0 0-1.6 1.6v1.333a.8.8 0 0 0 .8.8h.267v1.867a.267.267 0 0 0 .266.267h3.2v.533H2.667a.267.267 0 0 0-.267.267v3.2a.267.267 0 0 0 .147.24l1.067.533a.267.267 0 0 0 .386-.24v-2.4h8v2.4a.267.267 0 0 0 .385.24l1.067-.534a.267.267 0 0 0 .148-.24v-3.2a.267.267 0 0 0-.267-.266h-1.867v-.533h3.2a.267.267 0 0 0 .267-.267V7.338h.266a.8.8 0 0 0 .8-.8V5.205a1.601 1.601 0 0 0-1.6-1.6zM3.466 13.573l-.534-.266v-1.702h.534zm1.066-2.501h-1.6v-.534h1.6zM.8 6.805a.267.267 0 0 1-.267-.267v-.266h.534v-.534H.533v-.533A1.066 1.066 0 0 1 1.6 4.138v2.667zm1.333 2.133H1.6v-1.6h.533zm0-2.133V4.672A1.066 1.066 0 0 1 3.2 5.738v.8a.267.267 0 0 1-.267.267zm2.4 2.133H2.667v-.533h1.866zm4.267-5.6a1.066 1.066 0 1 1 2.133 0 1.066 1.066 0 0 1-2.133 0ZM6.133 4.405a1.066 1.066 0 1 1 0-2.133 1.066 1.066 0 0 1 0 2.133zM9.6 11.072H6.4v-3.2h3.2zm1.333 0h-.8V7.605a.267.267 0 0 0-.267-.267H6.133a.267.267 0 0 0-.267.267v3.467h-.8v-4.8a.267.267 0 0 1 .267-.267h1.6A1.84 1.84 0 0 0 8 5.56c.298.259.672.415 1.066.445h1.6a.267.267 0 0 1 .267.267zm2.133 2.235-.533.266v-1.968h.533zm0-2.769v.534h-1.6v-.534Zm.267-1.6h-1.867v-.533h1.867Zm-.267-2.133a.267.267 0 0 1-.266-.267v-.8a1.066 1.066 0 0 1 1.066-1.066v2.133zM14.4 8.938h-.533v-1.6h.533zm1.067-3.2h-.533v.534h.533v.266a.267.267 0 0 1-.267.267h-.8V4.138a1.066 1.066 0 0 1 1.067 1.067z"/><path d="M7.2 8.672h1.6v.533H7.2zM6.933 9.738h2.133v.534H6.933ZM5.866 2.805H6.4v.533h-.534ZM9.6 2.805h.533v.533H9.6z"/></svg>