<?xml version="1.0" encoding="UTF-8" standalone="no"?>
<svg
   width="1125pt"
   height="1125pt"
   version="1.1"
   viewBox="-281.25 -220.5397 1687.5 1323.2381"
   id="svg42"
   sodipodi:docname="app-splashscreen-inkscape.svg"
   inkscape:version="1.2.1 (9c6d41e410, 2022-07-14)"
   xmlns:inkscape="http://www.inkscape.org/namespaces/inkscape"
   xmlns:sodipodi="http://sodipodi.sourceforge.net/DTD/sodipodi-0.dtd"
   xmlns="http://www.w3.org/2000/svg"
   xmlns:svg="http://www.w3.org/2000/svg"
   xmlns:rdf="http://www.w3.org/1999/02/22-rdf-syntax-ns#"
   xmlns:cc="http://creativecommons.org/ns#"
   xmlns:dc="http://purl.org/dc/elements/1.1/">
  <sodipodi:namedview
     inkscape:document-rotation="0"
     pagecolor="#ffffff"
     bordercolor="#666666"
     borderopacity="1"
     objecttolerance="10"
     gridtolerance="10"
     guidetolerance="10"
     inkscape:pageopacity="0"
     inkscape:pageshadow="2"
     inkscape:window-width="1920"
     inkscape:window-height="1009"
     id="namedview1581"
     showgrid="false"
     inkscape:zoom="0.42047091"
     inkscape:cx="750.34917"
     inkscape:cy="680.18974"
     inkscape:window-x="-8"
     inkscape:window-y="-8"
     inkscape:window-maximized="1"
     inkscape:current-layer="layer-bottom"
     inkscape:showpageshadow="2"
     inkscape:pagecheckerboard="0"
     inkscape:deskcolor="#d1d1d1"
     inkscape:document-units="pt" />
  <metadata
     id="metadata48">
    <rdf:RDF>
      <cc:Work
         rdf:about="">
        <dc:format>image/svg+xml</dc:format>
        <dc:type
           rdf:resource="http://purl.org/dc/dcmitype/StillImage" />
      </cc:Work>
    </rdf:RDF>
  </metadata>
  <defs
     id="defs46">
    <style
       id="style940"><![CDATA[
.dark-orange {
  stroke:none;
  stroke-dasharray:none;
  stroke-miterlimit:4;
  fill:#ff6600;
}
.light-orange {
  stroke:none;
  stroke-dasharray:none;
  stroke-miterlimit:4;
  fill:#ffc69d;
}
]]></style>
  </defs>
  <g
     inkscape:groupmode="layer"
     id="layer-bottom"
     inkscape:label="bottom"
     style="display:inline">
    <g
       id="fills">
      <g
         id="fills-dark">
        <path
           class="dark-orange"
           d="m 354.52196,484.65955 0.64991,-173.49978 6.62975,-5.6894 6.62974,-5.68938 h 63.91619 c 77.96555,0 91.48958,-2.68383 122.48445,-24.3069 l 8.26521,-5.7661 9.45654,6.46171 c 31.11211,21.25914 43.19726,23.61129 121.31287,23.61129 h 63.91619 l 6.62972,5.68938 6.62978,5.6894 0.6499,173.49978 0.64989,173.49976 h -28.414 l -31.4278,-1.10788 -1.63443,-124.58221 c -1.02154,-77.86535 -2.28503,-126.13426 -3.7112,-128.79331 -4.82466,-8.99534 -7.10981,-7.71008 -144.04759,-7.71008 -136.93779,0 -142.24614,-0.68062 -147.07081,8.31472 -1.42619,2.65905 -1.55207,49.7157 -2.31302,127.58403 l -1.22335,125.18685 -30.21385,1.10788 h -28.41399 z"
           id="fill-body-outer"
           style="stroke-width:1.01298"
           sodipodi:nodetypes="ccccsscsscccccccssssscccc" />
        <path
           class="dark-orange"
           d="m 40.954951,351.14909 c -4.56096,-4.56096 -7.439318,-10.91499 -5.291787,-20.04102 L 37.5001,319.55123 56.86923,319.1379 75.0001,319.55123 73.586041,300.40094 75.0001,282.05123 56.617755,282.73285 37.5001,282.05123 36.84931,254.33248 c -0.566503,-24.12873 1.45947,-29.67089 8.51199,-43.99655 10.921688,-22.18501 32.951009,-41.99664 56.47989,-40.42631 l 10.65891,-0.35839 0.9542,94.12545 -0.9542,93.37455 -32.008267,1.09983 c -29.14954,1.00159 -34.049064,-1.51416 -39.536882,-7.00197 z"
           id="fill-claw-left-large"
           sodipodi:nodetypes="sscccccccssscccss" />
        <path
           class="dark-orange"
           d="m 1011.0422,262.5748 v -94.72116 l 10.611,1.60277 c 24.827,3.75003 47.3264,17.44342 58.8714,39.89505 7.3418,14.27695 6.4655,19.46738 7.4553,44.22241 l -0.4796,28.47756 -18.7194,0.73172 -18.7806,-0.73172 0.1554,19.22435 -0.1554,18.27565 19.071,-0.37693 18.429,0.37693 0.94,13.95049 c 0.6466,9.59565 -1.2412,14.15525 -6.1282,18.83399 -5.8803,5.62953 -7.4468,4.96005 -38.6991,4.96005 h -32.5708 z"
           id="fill-claw-right-large"
           style="stroke-width:1.04842"
           sodipodi:nodetypes="ccscscccccccssscc" />
        <path
           class="dark-orange"
           d="m 204.50893,638.53156 v -19.23868 h 57.8735 57.87353 v 19.23868 19.23861 h -57.87353 -57.8735 z"
           id="fill-leg-left-top"
           style="stroke-width:1.07867" />
        <path
           class="dark-orange"
           d="m 223.16462,823.20001 -17.50502,-9.20562 v -59.85545 -59.85538 h 19.45002 19.45002 v 68.10764 c 0,37.45924 0.19362,70.40729 -0.87614,70.34371 -1.06974,-0.0635 -11.12201,-4.59323 -20.51888,-9.5349 z"
           id="fill-leg-left-bottom"
           style="stroke-width:1.05915"
           sodipodi:nodetypes="scccccsss" />
        <path
           class="dark-orange"
           d="m 805.44557,638.43373 v -19.65571 h 56.82402 56.82404 v 19.65571 19.65564 h -56.82404 -56.82402 z"
           id="fill-leg-right-top"
           style="stroke-width:1.08036" />
        <path
           class="dark-orange"
           d="m 880.51433,763.07634 v -68.9332 h 19.13845 19.13852 v 60.58382 60.58382 l -17.79888,8.34945 c -9.78939,4.59221 -19.23308,9.40751 -19.96992,9.40751 -0.73675,0 -0.50817,-32.0781 -0.50817,-69.9914 z"
           id="fill-leg-right-bottom"
           style="stroke-width:1.05697"
           sodipodi:nodetypes="scccccsss" />
        <path
           class="dark-orange"
           d="m 804.51215,488.92503 v -19.82725 h 66.57761 66.5776 v 19.82725 19.82725 h -66.5776 -66.57761 z"
           id="fill-arm-right-bottom"
           style="stroke-width:1.08574" />
        <path
           class="dark-orange"
           d="m 974.53667,450.60826 v -57.8202 h 19.74317 19.74316 v 57.8202 57.82021 h -19.74316 -19.74317 z"
           id="fill-arm-right-top"
           style="stroke-width:1.08078" />
        <path
           class="dark-orange"
           d="m 905.22245,353.45319 c -7.39163,-7.31292 -8.29895,-14.23522 -7.0943,-54.12688 0.90758,-30.05478 2.01931,-38.46568 6.34822,-48.02848 11.03868,-24.38535 37.4957,-44.96376 62.09758,-48.29993 l 11.26203,-1.52719 v 78.43914 78.43913 h -33.8325 c -30.34583,0 -34.34257,-0.50456 -38.78103,-4.89579 z"
           id="fill-claw-right-small"
           style="stroke-width:1.0698" />
        <path
           class="dark-orange"
           d="m 111.72269,450.83625 v -57.34902 h 19.2928 19.29282 v 57.34902 57.34903 h -19.29282 -19.2928 z"
           id="fill-claw-left-top"
           style="stroke-width:1.06403" />
        <path
           class="dark-orange"
           d="M 187.31214,488.23019 V 468.777 h 66.22596 66.22598 v 19.45319 19.45322 H 253.5381 187.31214 Z"
           id="fill-claw-left-bottom"
           style="stroke-width:1.0726" />
        <path
           class="dark-orange"
           d="m 149.79441,281.17461 v -78.7409 l 8.09668,1.67194 c 25.98247,5.3653 50.00976,23.37679 60.96237,45.69899 6.58842,13.42766 6.96348,16.11513 7.71145,55.25558 0.61754,32.31549 0.0381,42.14888 -2.70081,45.83747 -4.34363,5.84964 -20.5858,8.67284 -51.02528,8.86917 l -23.04441,0.14864 z"
           id="fill-claw-left-small"
           style="stroke-width:1.06963" />
      </g>
      <g
         id="fills-light">
        <path
           class="light-orange"
           d="m 400.87178,184.54667 c -16.34687,-6.58112 -36.95454,-29.73992 -43.27136,-48.6282 -12.39042,-37.049234 6.22264,-75.600919 44.58617,-92.34758 65.35042,-28.527156 130.06454,39.510561 99.00901,104.09394 -16.28266,33.86158 -64.132,51.45233 -100.32382,36.88184 z m 49.11889,-90.255646 0.01,-18.489594 -18.66359,0.134831 -18.83641,-0.134831 0.18244,16.675661 -0.18244,20.824339 18.83641,-0.20217 18.66359,0.20217 z"
           id="fill-eye-left"
           style="stroke-width:1.07697"
           sodipodi:nodetypes="sssssccccccccc" />
        <path
           class="light-orange"
           d="M 448.45423,545.60627 V 432.05143 H 562.46846 676.4827 V 545.60627 659.16111 H 562.46846 448.45423 Z m 188.92232,38.73213 0.12375,-21.03697 -75.03184,1.23065 -74.96816,-1.23065 0.51357,20.73465 -0.51357,16.76535 74.96816,-0.58684 75.03184,0.58684 z m -19.00238,-75.40088 0.37613,-20.63609 -56.28184,0.52743 -56.21816,-0.52743 0.16129,20.63609 -0.16129,16.86391 56.52048,-0.23193 55.97952,0.23193 z"
           id="fill-body-inner"
           style="stroke-width:1.01734"
           sodipodi:nodetypes="ccccccccccccccccccccccccccc" />
        <path
           class="light-orange"
           d="m 655.59464,179.46736 c -44.60776,-26.95009 -52.53415,-84.19507 -16.5895,-119.810694 31.54385,-31.255116 72.7795,-32.359718 105.76382,-2.833151 53.29251,47.705865 21.14001,132.406215 -50.26173,132.406215 -13.65407,0 -29.21617,-3.90419 -38.91259,-9.76237 z m 56.71975,-87.142186 0.18591,-16.523744 -19.00968,0.478013 -18.49032,-0.478013 0.12007,17.581872 -0.12007,19.918128 16.97871,-0.39571 20.52129,0.39571 z"
           id="fill-eye-right"
           style="stroke-width:1.08005"
           sodipodi:nodetypes="sssssccccccccc" />
      </g>
    </g>
  </g>
  <g
     inkscape:groupmode="layer"
     id="layer-top"
     inkscape:label="top"
     style="display:inline">
    <g
       id="outlines"
       transform="translate(-37.4997,-167.94857)">
      <path
         d="m 1050,300 h -18.75 c -4.9727,0 -9.7422,1.9766 -13.258,5.4922 -3.5156,3.5156 -5.4922,8.2852 -5.4922,13.258 v 18.75 c -29.828,0.0312 -58.426,11.891 -79.516,32.984 -21.094,21.09 -32.953,49.688 -32.984,79.516 v 56.25 c 0,14.918 5.9258,29.227 16.477,39.773 10.547,10.551 24.855,16.477 39.773,16.477 h 18.75 v 37.5 h -131.25 v -112.5 c 0,-14.918 -5.9258,-29.227 -16.477,-39.773 -10.547,-10.551 -24.855,-16.477 -39.773,-16.477 h -63.414 l 19.07,-38.137 c 37.715,-3.875 70.965,-26.422 88.516,-60.027 17.555,-33.605 17.062,-73.777 -1.3047,-106.95 -18.367,-33.164 -52.16,-54.895 -89.957,-57.844 -37.801,-2.9531 -74.555,13.27 -97.848,43.184 -23.293,29.914 -30.012,69.523 -17.887,105.45 12.125,35.927 41.473,63.355 78.129,73.035 l -20.625,41.25 h -7.1797 c -23.512,-3.707 -45.184,-14.945 -61.762,-32.023 -3.5156,-3.5039 -8.2773,-5.4727 -13.238,-5.4727 -4.9607,0 -9.7227,1.9688 -13.238,5.4727 -16.574,17.09 -38.246,28.344 -61.762,32.062 h -7.1641 l -20.625,-41.25 c 36.406,-9.6562 65.539,-36.941 77.555,-72.637 12.02,-35.695 5.3242,-75.039 -17.828,-104.75 -23.152,-29.707 -59.668,-45.816 -97.219,-42.887 -37.551,2.9336 -71.125,24.512 -89.383,57.457 -18.262,32.941 -18.773,72.848 -1.3594,106.25 17.41,33.398 50.422,55.828 87.887,59.719 l 19.051,38.102 h -63.414 c -14.918,0 -29.227,5.9258 -39.773,16.477 -10.551,10.547 -16.477,24.855 -16.477,39.773 v 112.5 h -131.25 v -37.5 h 18.75 c 14.918,0 29.227,-5.9258 39.773,-16.477 10.551,-10.547 16.477,-24.855 16.477,-39.773 v -56.25 c -0.0312,-29.828 -11.891,-58.426 -32.984,-79.516 -21.09,-21.094 -49.688,-32.953 -79.516,-32.984 v -18.75 c 0,-4.9727 -1.9766,-9.7422 -5.4922,-13.258 -3.5156,-3.5156 -8.2852,-5.4922 -13.258,-5.4922 h -18.75 c -29.828,0.0312 -58.426,11.891 -79.516,32.984 -21.094,21.09 -32.953,49.688 -32.984,79.516 v 93.75 c 0,14.918 5.9258,29.227 16.477,39.773 10.547,10.551 24.855,16.477 39.773,16.477 h 18.75 v 131.25 c 0,4.9727 1.9766,9.7422 5.4922,13.258 3.5156,3.5156 8.2852,5.4922 13.258,5.4922 h 225 v 37.5 h -131.25 c -4.9727,0 -9.7422,1.9766 -13.258,5.4922 -3.5156,3.5156 -5.4922,8.2852 -5.4922,13.258 v 225 c -0.0195,3.5 0.94141,6.9375 2.7734,9.918 1.832,2.9844 4.4648,5.3906 7.5938,6.957 l 75,37.5 c 5.832,2.9141 12.754,2.5898 18.285,-0.8516 5.5352,-3.4414 8.8828,-9.5078 8.8477,-16.023 V 862.50484 h 562.5 v 168.74996 c -0.0352,6.5156 3.3125,12.582 8.8477,16.023 5.5312,3.4414 12.453,3.7656 18.285,0.8516 l 75,-37.5 c 3.1289,-1.5664 5.7617,-3.9727 7.5938,-6.957 1.832,-2.9805 2.793,-6.418 2.7734,-9.918 v -225 c 0,-4.9727 -1.9766,-9.7422 -5.4922,-13.258 -3.5156,-3.5156 -8.2852,-5.4922 -13.258,-5.4922 h -131.25 v -37.5 h 225 c 4.9727,0 9.7422,-1.9766 13.258,-5.4922 3.5156,-3.5156 5.4922,-8.2852 5.4922,-13.258 v -131.25 h 18.75 c 14.918,0 29.227,-5.9258 39.773,-16.477 10.551,-10.547 16.477,-24.855 16.477,-39.773 v -93.75 c -0.031,-29.828 -11.891,-58.426 -32.984,-79.516 -21.09,-21.094 -49.688,-32.953 -79.516,-32.984 z m -768.75,700.91 -37.5,-18.75 V 862.5 h 37.5 z m 75,-175.91 h -112.5 v -37.5 h 112.5 z M 93.75,525 c -4.9727,0 -9.7422,-1.9766 -13.258,-5.4922 -3.5156,-3.5156 -5.4922,-8.2852 -5.4922,-13.258 v -18.75 h 37.5 v -37.5 h -37.5 v -37.5 c 0,-19.891 7.9023,-38.969 21.969,-53.031 14.062,-14.066 33.141,-21.969 53.031,-21.969 v 187.5 z M 187.5,675 H 150 V 562.5 h 37.5 z m 0,-150 V 375 c 19.891,0 38.969,7.9023 53.031,21.969 C 254.597,411.031 262.5,430.11 262.5,450 v 56.25 c 0,4.9727 -1.9766,9.7422 -5.4922,13.258 -3.5156,3.5156 -8.2852,5.4922 -13.258,5.4922 z M 356.25,675 H 225 v -37.5 h 131.25 z m 300,-393.75 c 0,-19.891 7.9023,-38.969 21.969,-53.031 14.062,-14.066 33.141,-21.969 53.031,-21.969 19.89,0 38.969,7.9023 53.031,21.969 14.066,14.062 21.969,33.141 21.969,53.031 0,19.89 -7.9023,38.969 -21.969,53.031 -14.062,14.066 -33.141,21.969 -53.031,21.969 -19.89,0 -38.969,-7.9023 -53.031,-21.969 C 664.153,320.219 656.25,301.14 656.25,281.25 Z m -187.5,75 c -19.891,0 -38.969,-7.9023 -53.031,-21.969 -14.066,-14.062 -21.969,-33.141 -21.969,-53.031 0,-19.89 7.9023,-38.969 21.969,-53.031 14.062,-14.066 33.141,-21.969 53.031,-21.969 19.89,0 38.969,7.9023 53.031,21.969 14.066,14.062 21.969,33.141 21.969,53.031 0,19.89 -7.9023,38.969 -21.969,53.031 -14.062,14.066 -33.141,21.969 -53.031,21.969 z M 712.5,825 h -225 V 600 h 225 z m 93.75,0 H 750 V 581.25 c 0,-4.9727 -1.9766,-9.7422 -5.4922,-13.258 -3.5156,-3.5156 -8.2852,-5.4922 -13.258,-5.4922 h -262.5 c -4.9727,0 -9.7422,1.9766 -13.258,5.4922 -3.5156,3.5156 -5.4922,8.2852 -5.4922,13.258 V 825 h -56.25 V 487.5 c 0,-4.9727 1.9766,-9.7422 5.4922,-13.258 3.5156,-3.5156 8.2852,-5.4922 13.258,-5.4922 h 112.5 c 27.715,-2.1094 54.012,-13.09 75,-31.312 20.988,18.223 47.285,29.203 75,31.312 h 112.5 c 4.9727,0 9.7422,1.9766 13.258,5.4922 3.5156,3.5156 5.4922,8.2852 5.4922,13.258 z m 150,157.16 -37.5,18.75 V 862.5 h 37.5 z m 0,-194.66 V 825 H 843.75 V 787.5 Z M 975,675 H 843.75 V 637.5 H 975 Z M 956.25,525 c -4.9727,0 -9.7422,-1.9766 -13.258,-5.4922 -3.5156,-3.5156 -5.4922,-8.2852 -5.4922,-13.258 v -56.25 c 0,-19.891 7.9023,-38.969 21.969,-53.031 14.062,-14.066 33.141,-21.969 53.031,-21.969 v 150 z M 1050,675 h -37.5 V 562.5 h 37.5 z m 75,-225 h -37.5 v 37.5 h 37.5 v 18.75 c 0,4.9727 -1.9766,9.7422 -5.4922,13.258 -3.5156,3.5156 -8.2852,5.4922 -13.258,5.4922 h -56.25 v -187.5 c 19.891,0 38.969,7.9023 53.031,21.969 14.066,14.062 21.969,33.141 21.969,53.031 z"
         id="main-outline" />
      <path
         d="m 543.75,656.25 h 112.5 v 37.5 h -112.5 z"
         id="mouthline-top" />
      <path
         d="m 525,731.25 h 150 v 37.5 H 525 Z"
         id="mouthline-bottom" />
      <path
         d="m 450,243.75 h 37.5 v 37.5 H 450 Z"
         id="eyeball-left" />
      <path
         d="M 712.5,243.75 H 750 v 37.5 h -37.5 z"
         id="eyeball-right" />
    </g>
  </g>
</svg>
