<svg version="1.1" viewBox="-562.5 -683.92 2250 2250" id="svg42" xmlns="http://www.w3.org/2000/svg"><defs id="defs46"><style id="style940">.dark-orange,.light-orange{stroke:none;stroke-dasharray:none;stroke-miterlimit:4;fill:#f60}.light-orange{fill:#ffc69d}</style></defs><g id="layer-bottom" style="display:inline"><g id="fills"><g id="fills-dark"><path class="dark-orange" d="m354.522 484.66.65-173.5 6.63-5.69 6.63-5.689h63.916c77.965 0 91.49-2.684 122.484-24.307l8.265-5.766 9.457 6.462c31.112 21.259 43.197 23.611 121.313 23.611h63.916l6.63 5.69 6.63 5.689.65 173.5.65 173.5h-28.415L712.5 657.05l-1.634-124.582c-1.022-77.865-2.285-126.134-3.711-128.793-4.825-8.995-7.11-7.71-144.048-7.71s-142.246-.68-147.07 8.315c-1.427 2.659-1.553 49.715-2.314 127.584L412.5 657.05l-30.214 1.108h-28.414z" id="fill-body-outer" style="stroke-width:1.01298"/><path class="dark-orange" d="M40.955 351.15c-4.561-4.562-7.44-10.916-5.292-20.042l1.837-11.557 19.37-.413 18.13.413-1.414-19.15L75 282.05l-18.382.682-19.118-.682-.65-27.719c-.567-24.128 1.459-29.67 8.511-43.996 10.922-22.185 32.951-41.997 56.48-40.426l10.66-.359.953 94.126-.954 93.374-32.008 1.1c-29.15 1.002-34.05-1.514-39.537-7.002z" id="fill-claw-left-large"/><path class="dark-orange" d="M1011.042 262.575v-94.721l10.611 1.602c24.827 3.75 47.327 17.444 58.872 39.895 7.341 14.277 6.465 19.468 7.455 44.223l-.48 28.477-18.72.732-18.78-.732.156 19.225-.156 18.275 19.071-.377 18.43.377.94 13.95c.646 9.597-1.242 14.156-6.129 18.835-5.88 5.63-7.447 4.96-38.699 4.96h-32.57z" id="fill-claw-right-large" style="stroke-width:1.04842"/><path class="dark-orange" d="M204.509 638.532v-19.24h115.747V657.77H204.509z" id="fill-leg-left-top" style="stroke-width:1.07867"/><path class="dark-orange" d="m223.165 823.2-17.505-9.206v-119.71h38.9v68.107c0 37.46.193 70.407-.877 70.344-1.07-.064-11.122-4.593-20.518-9.535z" id="fill-leg-left-bottom" style="stroke-width:1.05915"/><path class="dark-orange" d="M805.446 638.434v-19.656h113.648v39.311H805.446z" id="fill-leg-right-top" style="stroke-width:1.08036"/><path class="dark-orange" d="M880.514 763.076v-68.933h38.277v121.168l-17.799 8.35c-9.789 4.591-19.233 9.407-19.97 9.407-.736 0-.508-32.078-.508-69.992z" id="fill-leg-right-bottom" style="stroke-width:1.05697"/><path class="dark-orange" d="M804.512 488.925v-19.827h133.155v39.654H804.512z" id="fill-arm-right-bottom" style="stroke-width:1.08574"/><path class="dark-orange" d="M974.537 450.608v-57.82h39.486v115.64h-39.486z" id="fill-arm-right-top" style="stroke-width:1.08078"/><path class="dark-orange" d="M905.222 353.453c-7.391-7.313-8.298-14.235-7.094-54.127.908-30.054 2.02-38.465 6.348-48.028 11.039-24.386 37.496-44.964 62.098-48.3l11.262-1.527v156.878h-33.833c-30.345 0-34.342-.505-38.78-4.896z" id="fill-claw-right-small" style="stroke-width:1.0698"/><path class="dark-orange" d="M111.723 450.836v-57.349h38.585V508.185h-38.585z" id="fill-claw-left-top" style="stroke-width:1.06403"/><path class="dark-orange" d="M187.312 488.23v-19.453h132.452v38.906H187.312Z" id="fill-claw-left-bottom" style="stroke-width:1.0726"/><path class="dark-orange" d="M149.794 281.175v-78.741l8.097 1.672c25.983 5.365 50.01 23.376 60.962 45.699 6.589 13.427 6.964 16.115 7.712 55.255.617 32.316.038 42.15-2.7 45.838-4.345 5.85-20.587 8.673-51.026 8.869l-23.045.148z" id="fill-claw-left-small" style="stroke-width:1.06963"/></g><g id="fills-light"><path class="light-orange" d="M400.872 184.547c-16.347-6.581-36.955-29.74-43.272-48.629-12.39-37.049 6.223-75.6 44.587-92.347 65.35-28.527 130.064 39.51 99.009 104.094-16.283 33.861-64.132 51.452-100.324 36.882zM449.99 94.29l.01-18.49-18.664.135-18.836-.135.182 16.676-.182 20.824 18.836-.202 18.664.202z" id="fill-eye-left" style="stroke-width:1.07697"/><path class="light-orange" d="M448.454 545.606V432.051h228.029v227.11H448.454Zm188.923 38.732.123-21.037-75.032 1.231-74.968-1.23.514 20.734-.514 16.765 74.968-.586 75.032.586zm-19.003-75.4.376-20.637-56.282.528-56.218-.528.162 20.637-.162 16.863 56.52-.232 55.98.232z" id="fill-body-inner" style="stroke-width:1.01734"/><path class="light-orange" d="M655.595 179.467c-44.608-26.95-52.535-84.195-16.59-119.81 31.544-31.255 72.78-32.36 105.764-2.833 53.292 47.705 21.14 132.406-50.262 132.406-13.654 0-29.216-3.904-38.912-9.763zm56.72-87.142.185-16.524-19.01.478-18.49-.478.12 17.582-.12 19.918 16.979-.395 20.521.395z" id="fill-eye-right" style="stroke-width:1.08005"/></g></g></g><g id="layer-top" style="display:inline"><g id="outlines" transform="translate(-37.5 -167.949)"><path d="M1050 300h-18.75a18.752 18.752 0 0 0-18.75 18.75v18.75a112.608 112.608 0 0 0-79.516 32.984A112.603 112.603 0 0 0 900 450v56.25a56.234 56.234 0 0 0 16.477 39.773A56.236 56.236 0 0 0 956.25 562.5H975V600H843.75V487.5a56.234 56.234 0 0 0-16.477-39.773A56.236 56.236 0 0 0 787.5 431.25h-63.414l19.07-38.137a112.873 112.873 0 0 0 88.516-60.027c17.555-33.605 17.062-73.777-1.305-106.95a112.871 112.871 0 0 0-89.957-57.844 112.87 112.87 0 0 0-97.848 43.184 112.88 112.88 0 0 0-17.887 105.45 112.864 112.864 0 0 0 78.13 73.035l-20.626 41.25H675a109.937 109.937 0 0 1-61.762-32.023A18.757 18.757 0 0 0 600 393.715c-4.96 0-9.722 1.97-13.238 5.473A109.96 109.96 0 0 1 525 431.25h-7.164L497.21 390a112.178 112.178 0 0 0 77.555-72.637 112.175 112.175 0 0 0-17.828-104.75 112.177 112.177 0 0 0-186.602 14.57 112.177 112.177 0 0 0-1.36 106.25 112.177 112.177 0 0 0 87.888 59.72l19.05 38.101H412.5a56.234 56.234 0 0 0-39.773 16.477 56.236 56.236 0 0 0-16.477 39.773v112.5H225v-37.5h18.75a56.234 56.234 0 0 0 39.773-16.477A56.236 56.236 0 0 0 300 506.254v-56.25a112.608 112.608 0 0 0-32.984-79.516 112.603 112.603 0 0 0-79.516-32.984v-18.75a18.752 18.752 0 0 0-18.75-18.75H150a112.608 112.608 0 0 0-79.516 32.984A112.603 112.603 0 0 0 37.5 412.504v93.75a56.234 56.234 0 0 0 16.477 39.773 56.236 56.236 0 0 0 39.773 16.477h18.75v131.25a18.752 18.752 0 0 0 18.75 18.75h225v37.5H225a18.752 18.752 0 0 0-18.75 18.75v225a18.745 18.745 0 0 0 10.367 16.875l75 37.5a18.747 18.747 0 0 0 18.285-.851 18.746 18.746 0 0 0 8.848-16.023v-168.75h562.5v168.75a18.744 18.744 0 0 0 8.847 16.023 18.747 18.747 0 0 0 18.285.851l75-37.5a18.744 18.744 0 0 0 10.367-16.875v-225a18.752 18.752 0 0 0-18.75-18.75H843.75v-37.5h225a18.752 18.752 0 0 0 18.75-18.75v-131.25h18.75a56.234 56.234 0 0 0 39.773-16.477 56.236 56.236 0 0 0 16.477-39.773v-93.75a112.607 112.607 0 0 0-32.984-79.516A112.603 112.603 0 0 0 1050 300.004zm-768.75 700.91-37.5-18.75V862.5h37.5zm75-175.91h-112.5v-37.5h112.5zM93.75 525A18.752 18.752 0 0 1 75 506.25V487.5h37.5V450H75v-37.5a74.986 74.986 0 0 1 21.969-53.031 74.99 74.99 0 0 1 53.03-21.97V525zm93.75 150H150V562.5h37.5zm0-150V375a74.986 74.986 0 0 1 53.031 21.969A74.99 74.99 0 0 1 262.5 450v56.25A18.752 18.752 0 0 1 243.75 525zm168.75 150H225v-37.5h131.25zm300-393.75a74.986 74.986 0 0 1 21.969-53.031 74.99 74.99 0 0 1 106.062 0 74.99 74.99 0 0 1 0 106.062 74.99 74.99 0 0 1-106.062 0 74.99 74.99 0 0 1-21.969-53.031Zm-187.5 75a74.986 74.986 0 0 1-53.031-21.969 74.99 74.99 0 0 1 0-106.062 74.99 74.99 0 0 1 106.062 0 74.99 74.99 0 0 1 0 106.062 74.99 74.99 0 0 1-53.031 21.969zM712.5 825h-225V600h225zm93.75 0H750V581.25a18.752 18.752 0 0 0-18.75-18.75h-262.5A18.752 18.752 0 0 0 450 581.25V825h-56.25V487.5a18.752 18.752 0 0 1 18.75-18.75H525a129.377 129.377 0 0 0 75-31.312 129.367 129.367 0 0 0 75 31.312h112.5a18.752 18.752 0 0 1 18.75 18.75zm150 157.16-37.5 18.75V862.5h37.5zm0-194.66V825h-112.5v-37.5ZM975 675H843.75v-37.5H975Zm-18.75-150a18.752 18.752 0 0 1-18.75-18.75V450a74.986 74.986 0 0 1 21.969-53.031 74.99 74.99 0 0 1 53.03-21.97v150zM1050 675h-37.5V562.5h37.5zm75-225h-37.5v37.5h37.5v18.75a18.752 18.752 0 0 1-18.75 18.75H1050V337.5a74.986 74.986 0 0 1 53.03 21.97A74.99 74.99 0 0 1 1125 412.5z" id="main-outline"/><path d="M543.75 656.25h112.5v37.5h-112.5z" id="mouthline-top"/><path d="M525 731.25h150v37.5H525Z" id="mouthline-bottom"/><path d="M450 243.75h37.5v37.5H450Z" id="eyeball-left"/><path d="M712.5 243.75H750v37.5h-37.5z" id="eyeball-right"/></g></g></svg>