<svg viewBox="0 0 16 16" id="svg107" xmlns="http://www.w3.org/2000/svg">
	<g transform="translate(-41.340061,-199.19995)" id="crab">
		<path id="main-outline" d="m 1050,300 h -18.75 c -4.9727,0 -9.7422,1.9766 -13.258,5.4922 -3.5156,3.5156 -5.4922,8.2852 -5.4922,13.258 v 18.75 c -29.828,0.0312 -58.426,11.891 -79.516,32.984 -21.094,21.09 -32.953,49.688 -32.984,79.516 v 56.25 c 0,14.918 5.9258,29.227 16.477,39.773 10.547,10.551 24.855,16.477 39.773,16.477 h 18.75 v 37.5 h -131.25 v -112.5 c 0,-14.918 -5.9258,-29.227 -16.477,-39.773 -10.547,-10.551 -24.855,-16.477 -39.773,-16.477 h -63.414 l 19.07,-38.137 c 37.715,-3.875 70.965,-26.422 88.516,-60.027 17.555,-33.605 17.062,-73.777 -1.3047,-106.95 -18.367,-33.164 -52.16,-54.895 -89.957,-57.844 -37.801,-2.9531 -74.555,13.27 -97.848,43.184 -23.293,29.914 -30.012,69.523 -17.887,105.45 12.125,35.927 41.473,63.355 78.129,73.035 l -20.625,41.25 h -7.1797 c -23.512,-3.707 -45.184,-14.945 -61.762,-32.023 -3.5156,-3.5039 -8.2773,-5.4727 -13.238,-5.4727 -4.9607,0 -9.7227,1.9688 -13.238,5.4727 -16.574,17.09 -38.246,28.344 -61.762,32.062 h -7.1641 l -20.625,-41.25 c 36.406,-9.6562 65.539,-36.941 77.555,-72.637 12.02,-35.695 5.3242,-75.039 -17.828,-104.75 -23.152,-29.707 -59.668,-45.816 -97.219,-42.887 -37.551,2.9336 -71.125,24.512 -89.383,57.457 -18.262,32.941 -18.773,72.848 -1.3594,106.25 17.41,33.398 50.422,55.828 87.887,59.719 l 19.051,38.102 h -63.414 c -14.918,0 -29.227,5.9258 -39.773,16.477 -10.551,10.547 -16.477,24.855 -16.477,39.773 v 112.5 h -131.25 v -37.5 h 18.75 c 14.918,0 29.227,-5.9258 39.773,-16.477 10.551,-10.547 16.477,-24.855 16.477,-39.773 v -56.25 c -0.0312,-29.828 -11.891,-58.426 -32.984,-79.516 -21.09,-21.094 -49.688,-32.953 -79.516,-32.984 v -18.75 c 0,-4.9727 -1.9766,-9.7422 -5.4922,-13.258 -3.5156,-3.5156 -8.2852,-5.4922 -13.258,-5.4922 h -18.75 c -29.828,0.0312 -58.426,11.891 -79.516,32.984 -21.094,21.09 -32.953,49.688 -32.984,79.516 v 93.75 c 0,14.918 5.9258,29.227 16.477,39.773 10.547,10.551 24.855,16.477 39.773,16.477 h 18.75 v 131.25 c 0,4.9727 1.9766,9.7422 5.4922,13.258 3.5156,3.5156 8.2852,5.4922 13.258,5.4922 h 225 v 37.5 h -131.25 c -4.9727,0 -9.7422,1.9766 -13.258,5.4922 -3.5156,3.5156 -5.4922,8.2852 -5.4922,13.258 v 225 c -0.0195,3.5 0.94141,6.9375 2.7734,9.918 1.832,2.9844 4.4648,5.3906 7.5938,6.957 l 75,37.5 c 5.832,2.9141 12.754,2.5898 18.285,-0.8516 5.5352,-3.4414 8.8828,-9.5078 8.8477,-16.023 V 862.50484 h 562.5 v 168.74996 c -0.0352,6.5156 3.3125,12.582 8.8477,16.023 5.5312,3.4414 12.453,3.7656 18.285,0.8516 l 75,-37.5 c 3.1289,-1.5664 5.7617,-3.9727 7.5938,-6.957 1.832,-2.9805 2.793,-6.418 2.7734,-9.918 v -225 c 0,-4.9727 -1.9766,-9.7422 -5.4922,-13.258 -3.5156,-3.5156 -8.2852,-5.4922 -13.258,-5.4922 h -131.25 v -37.5 h 225 c 4.9727,0 9.7422,-1.9766 13.258,-5.4922 3.5156,-3.5156 5.4922,-8.2852 5.4922,-13.258 v -131.25 h 18.75 c 14.918,0 29.227,-5.9258 39.773,-16.477 10.551,-10.547 16.477,-24.855 16.477,-39.773 v -93.75 c -0.031,-29.828 -11.891,-58.426 -32.984,-79.516 -21.09,-21.094 -49.688,-32.953 -79.516,-32.984 z m -768.75,700.91 -37.5,-18.75 V 862.5 h 37.5 z m 75,-175.91 h -112.5 v -37.5 h 112.5 z M 93.75,525 c -4.9727,0 -9.7422,-1.9766 -13.258,-5.4922 -3.5156,-3.5156 -5.4922,-8.2852 -5.4922,-13.258 v -18.75 h 37.5 v -37.5 h -37.5 v -37.5 c 0,-19.891 7.9023,-38.969 21.969,-53.031 14.062,-14.066 33.141,-21.969 53.031,-21.969 v 187.5 z M 187.5,675 H 150 V 562.5 h 37.5 z m 0,-150 V 375 c 19.891,0 38.969,7.9023 53.031,21.969 C 254.597,411.031 262.5,430.11 262.5,450 v 56.25 c 0,4.9727 -1.9766,9.7422 -5.4922,13.258 -3.5156,3.5156 -8.2852,5.4922 -13.258,5.4922 z M 356.25,675 H 225 v -37.5 h 131.25 z m 300,-393.75 c 0,-19.891 7.9023,-38.969 21.969,-53.031 14.062,-14.066 33.141,-21.969 53.031,-21.969 19.89,0 38.969,7.9023 53.031,21.969 14.066,14.062 21.969,33.141 21.969,53.031 0,19.89 -7.9023,38.969 -21.969,53.031 -14.062,14.066 -33.141,21.969 -53.031,21.969 -19.89,0 -38.969,-7.9023 -53.031,-21.969 C 664.153,320.219 656.25,301.14 656.25,281.25 Z m -187.5,75 c -19.891,0 -38.969,-7.9023 -53.031,-21.969 -14.066,-14.062 -21.969,-33.141 -21.969,-53.031 0,-19.89 7.9023,-38.969 21.969,-53.031 14.062,-14.066 33.141,-21.969 53.031,-21.969 19.89,0 38.969,7.9023 53.031,21.969 14.066,14.062 21.969,33.141 21.969,53.031 0,19.89 -7.9023,38.969 -21.969,53.031 -14.062,14.066 -33.141,21.969 -53.031,21.969 z M 712.5,825 h -225 V 600 h 225 z m 93.75,0 H 750 V 581.25 c 0,-4.9727 -1.9766,-9.7422 -5.4922,-13.258 -3.5156,-3.5156 -8.2852,-5.4922 -13.258,-5.4922 h -262.5 c -4.9727,0 -9.7422,1.9766 -13.258,5.4922 -3.5156,3.5156 -5.4922,8.2852 -5.4922,13.258 V 825 h -56.25 V 487.5 c 0,-4.9727 1.9766,-9.7422 5.4922,-13.258 3.5156,-3.5156 8.2852,-5.4922 13.258,-5.4922 h 112.5 c 27.715,-2.1094 54.012,-13.09 75,-31.312 20.988,18.223 47.285,29.203 75,31.312 h 112.5 c 4.9727,0 9.7422,1.9766 13.258,5.4922 3.5156,3.5156 5.4922,8.2852 5.4922,13.258 z m 150,157.16 -37.5,18.75 V 862.5 h 37.5 z m 0,-194.66 V 825 H 843.75 V 787.5 Z M 975,675 H 843.75 V 637.5 H 975 Z M 956.25,525 c -4.9727,0 -9.7422,-1.9766 -13.258,-5.4922 -3.5156,-3.5156 -5.4922,-8.2852 -5.4922,-13.258 v -56.25 c 0,-19.891 7.9023,-38.969 21.969,-53.031 14.062,-14.066 33.141,-21.969 53.031,-21.969 v 150 z M 1050,675 h -37.5 V 562.5 h 37.5 z m 75,-225 h -37.5 v 37.5 h 37.5 v 18.75 c 0,4.9727 -1.9766,9.7422 -5.4922,13.258 -3.5156,3.5156 -8.2852,5.4922 -13.258,5.4922 h -56.25 v -187.5 c 19.891,0 38.969,7.9023 53.031,21.969 14.066,14.062 21.969,33.141 21.969,53.031 z" transform="matrix(0.01422171,0,0,0.01422171,40.80675,198.53854)" />
		<path id="mouthline-top" d="m 543.75,656.25 h 112.5 v 37.5 h -112.5 z" transform="matrix(0.01422171,0,0,0.01422171,40.80675,198.53854)" />
		<path id="mouthline-bottom" d="m 525,731.25 h 150 v 37.5 H 525 Z" transform="matrix(0.01422171,0,0,0.01422171,40.80675,198.53854)" />
		<path id="eyeball-left" d="m 450,243.75 h 37.5 v 37.5 H 450 Z" transform="matrix(0.01422171,0,0,0.01422171,40.80675,198.53854)" />
		<path id="eyeball-right" d="M 712.5,243.75 H 750 v 37.5 h -37.5 z" transform="matrix(0.01422171,0,0,0.01422171,40.80675,198.53854)" />
	</g>
</svg>
