<?xml version="1.0" encoding="UTF-8"?>
<svg width="1200pt" height="1200pt" version="1.1" viewBox="0 0 1200 1200" xmlns="http://www.w3.org/2000/svg">
 <g>
  <path d="m1050 300h-18.75c-4.9727 0-9.7422 1.9766-13.258 5.4922-3.5156 3.5156-5.4922 8.2852-5.4922 13.258v18.75c-29.828 0.03125-58.426 11.891-79.516 32.984-21.094 21.09-32.953 49.688-32.984 79.516v56.25c0 14.918 5.9258 29.227 16.477 39.773 10.547 10.551 24.855 16.477 39.773 16.477h18.75v37.5h-131.25v-112.5c0-14.918-5.9258-29.227-16.477-39.773-10.547-10.551-24.855-16.477-39.773-16.477h-63.414l19.07-38.137c37.715-3.875 70.965-26.422 88.516-60.027 17.555-33.605 17.062-73.777-1.3047-106.95-18.367-33.164-52.16-54.895-89.957-57.844-37.801-2.9531-74.555 13.27-97.848 43.184-23.293 29.914-30.012 69.523-17.887 105.45s41.473 63.355 78.129 73.035l-20.625 41.25h-7.1797c-23.512-3.707-45.184-14.945-61.762-32.023-3.5156-3.5039-8.2773-5.4727-13.238-5.4727s-9.7227 1.9688-13.238 5.4727c-16.574 17.09-38.246 28.344-61.762 32.062h-7.1641l-20.625-41.25c36.406-9.6562 65.539-36.941 77.555-72.637 12.02-35.695 5.3242-75.039-17.828-104.75-23.152-29.707-59.668-45.816-97.219-42.887-37.551 2.9336-71.125 24.512-89.383 57.457-18.262 32.941-18.773 72.848-1.3594 106.25 17.41 33.398 50.422 55.828 87.887 59.719l19.051 38.102h-63.414c-14.918 0-29.227 5.9258-39.773 16.477-10.551 10.547-16.477 24.855-16.477 39.773v112.5h-131.25v-37.5h18.75c14.918 0 29.227-5.9258 39.773-16.477 10.551-10.547 16.477-24.855 16.477-39.773v-56.25c-0.03125-29.828-11.891-58.426-32.984-79.516-21.09-21.094-49.688-32.953-79.516-32.984v-18.75c0-4.9727-1.9766-9.7422-5.4922-13.258-3.5156-3.5156-8.2852-5.4922-13.258-5.4922h-18.75c-29.828 0.03125-58.426 11.891-79.516 32.984-21.094 21.09-32.953 49.688-32.984 79.516v93.75c0 14.918 5.9258 29.227 16.477 39.773 10.547 10.551 24.855 16.477 39.773 16.477h18.75v131.25c0 4.9727 1.9766 9.7422 5.4922 13.258 3.5156 3.5156 8.2852 5.4922 13.258 5.4922h225v37.5h-131.25c-4.9727 0-9.7422 1.9766-13.258 5.4922-3.5156 3.5156-5.4922 8.2852-5.4922 13.258v225c-0.019531 3.5 0.94141 6.9375 2.7734 9.918 1.832 2.9844 4.4648 5.3906 7.5938 6.957l75 37.5c5.832 2.9141 12.754 2.5898 18.285-0.85156 5.5352-3.4414 8.8828-9.5078 8.8477-16.023v-168.75h562.5v168.75c-0.035156 6.5156 3.3125 12.582 8.8477 16.023 5.5312 3.4414 12.453 3.7656 18.285 0.85156l75-37.5c3.1289-1.5664 5.7617-3.9727 7.5938-6.957 1.832-2.9805 2.793-6.418 2.7734-9.918v-225c0-4.9727-1.9766-9.7422-5.4922-13.258-3.5156-3.5156-8.2852-5.4922-13.258-5.4922h-131.25v-37.5h225c4.9727 0 9.7422-1.9766 13.258-5.4922 3.5156-3.5156 5.4922-8.2852 5.4922-13.258v-131.25h18.75c14.918 0 29.227-5.9258 39.773-16.477 10.551-10.547 16.477-24.855 16.477-39.773v-93.75c-0.03125-29.828-11.891-58.426-32.984-79.516-21.09-21.094-49.688-32.953-79.516-32.984zm-768.75 700.91-37.5-18.75v-119.66h37.5zm75-175.91h-112.5v-37.5h112.5zm-262.5-300c-4.9727 0-9.7422-1.9766-13.258-5.4922-3.5156-3.5156-5.4922-8.2852-5.4922-13.258v-18.75h37.5v-37.5h-37.5v-37.5c0-19.891 7.9023-38.969 21.969-53.031 14.062-14.066 33.141-21.969 53.031-21.969v187.5zm93.75 150h-37.5v-112.5h37.5zm0-150v-150c19.891 0 38.969 7.9023 53.031 21.969 14.066 14.062 21.969 33.141 21.969 53.031v56.25c0 4.9727-1.9766 9.7422-5.4922 13.258-3.5156 3.5156-8.2852 5.4922-13.258 5.4922zm168.75 150h-131.25v-37.5h131.25zm300-393.75c0-19.891 7.9023-38.969 21.969-53.031 14.062-14.066 33.141-21.969 53.031-21.969s38.969 7.9023 53.031 21.969c14.066 14.062 21.969 33.141 21.969 53.031s-7.9023 38.969-21.969 53.031c-14.062 14.066-33.141 21.969-53.031 21.969s-38.969-7.9023-53.031-21.969c-14.066-14.062-21.969-33.141-21.969-53.031zm-187.5 75c-19.891 0-38.969-7.9023-53.031-21.969-14.066-14.062-21.969-33.141-21.969-53.031s7.9023-38.969 21.969-53.031c14.062-14.066 33.141-21.969 53.031-21.969s38.969 7.9023 53.031 21.969c14.066 14.062 21.969 33.141 21.969 53.031s-7.9023 38.969-21.969 53.031c-14.062 14.066-33.141 21.969-53.031 21.969zm243.75 468.75h-225v-225h225zm93.75 0h-56.25v-243.75c0-4.9727-1.9766-9.7422-5.4922-13.258-3.5156-3.5156-8.2852-5.4922-13.258-5.4922h-262.5c-4.9727 0-9.7422 1.9766-13.258 5.4922-3.5156 3.5156-5.4922 8.2852-5.4922 13.258v243.75h-56.25v-337.5c0-4.9727 1.9766-9.7422 5.4922-13.258 3.5156-3.5156 8.2852-5.4922 13.258-5.4922h112.5c27.715-2.1094 54.012-13.09 75-31.312 20.988 18.223 47.285 29.203 75 31.312h112.5c4.9727 0 9.7422 1.9766 13.258 5.4922 3.5156 3.5156 5.4922 8.2852 5.4922 13.258zm150 157.16-37.5 18.75v-138.41h37.5zm0-194.66v37.5h-112.5v-37.5zm18.75-112.5h-131.25v-37.5h131.25zm-18.75-150c-4.9727 0-9.7422-1.9766-13.258-5.4922-3.5156-3.5156-5.4922-8.2852-5.4922-13.258v-56.25c0-19.891 7.9023-38.969 21.969-53.031 14.062-14.066 33.141-21.969 53.031-21.969v150zm93.75 150h-37.5v-112.5h37.5zm75-225h-37.5v37.5h37.5v18.75c0 4.9727-1.9766 9.7422-5.4922 13.258-3.5156 3.5156-8.2852 5.4922-13.258 5.4922h-56.25v-187.5c19.891 0 38.969 7.9023 53.031 21.969 14.066 14.062 21.969 33.141 21.969 53.031z"/>
  <path d="m543.75 656.25h112.5v37.5h-112.5z"/>
  <path d="m525 731.25h150v37.5h-150z"/>
  <path d="m450 243.75h37.5v37.5h-37.5z"/>
  <path d="m712.5 243.75h37.5v37.5h-37.5z"/>
 </g>
</svg>
