<svg xmlns="http://www.w3.org/2000/svg" viewBox="0 0 1211.4 1211.4"><circle r="603.7" cy="605.7" cx="605.7" style="fill:#fff;fill-opacity:1;stroke:none"/><g style="stroke:none;stroke-dasharray:none;stroke-miterlimit:4;fill:#f60"><path d="m397.7 686.9.7-173.5 6.6-5.7 6.6-5.7h64c77.9 0 91.4-2.7 122.4-24.3l8.3-5.8 9.4 6.5C647 499.6 659 502 737.1 502H801l6.6 5.7 6.6 5.7.7 173.5.6 173.5h-28.4l-31.4-1.1-1.6-124.6c-1-77.9-2.3-126.2-3.8-128.8-4.8-9-7-7.7-144-7.7s-142.2-.7-147 8.3c-1.5 2.6-1.6 49.7-2.4 127.6l-1.2 125.2-30.2 1H397zM84.1 553.3a20 20 0 0 1-5.2-20l1.8-11.5 19.4-.5 18 .5-1.3-19.2 1.4-18.3-18.4.6-19.1-.6-.7-27.8c-.5-24.1 1.5-29.6 8.6-44 10.9-22.1 32.9-42 56.4-40.4l10.7-.3 1 94-1 93.5-32 1c-29.2 1-34-1.5-39.6-7zM1054.2 464.8V370l10.6 1.6a77.8 77.8 0 0 1 59 39.9c7.3 14.2 6.4 19.4 7.4 44.2l-.5 28.5-18.7.7-18.8-.7.1 19.2-.1 18.3 19-.4 18.5.4 1 13.9c.6 9.6-1.3 14.2-6.2 18.8-5.9 5.7-7.4 5-38.7 5h-32.6zM247.7 840.7v-19.2H363.4V860H247.7zM266.4 1025.4l-17.6-9.2V896.5h38.9v68c0 37.6.2 70.5-.8 70.4-1.1 0-11.1-4.6-20.5-9.5zM848.6 840.6V821H962.3v39.3H848.6zM923.7 965.3v-69H962v121.2l-17.8 8.4c-9.8 4.6-19.3 9.4-20 9.4-.7 0-.5-32.1-.5-70zM847.7 691.1v-19.8h133.2V711H847.7zM1017.7 652.8V595h39.5v115.6h-39.5zM948.4 555.7c-7.4-7.4-8.3-14.3-7-54.2.8-30 2-38.4 6.3-48 11-24.4 37.5-45 62-48.3l11.3-1.5v156.8h-33.8c-30.4 0-34.3-.5-38.8-4.8zM155 653v-57.3h38.5V710.4h-38.6zM230.5 690.4V671H363v38.9H230.5ZM193 483.4v-78.8l8 1.7c26 5.4 50 23.4 61 45.7 6.6 13.4 7 16.1 7.8 55.3.6 32.3 0 42.1-2.7 45.8-4.4 5.8-20.6 8.7-51 8.9l-23.1.1z"/></g><g style="stroke:none;stroke-dasharray:none;stroke-miterlimit:4;fill:#ffc69d"><path style="stroke-width:1.07697" d="M400.9 184.5c-16.4-6.5-37-29.7-43.3-48.6-12.4-37 6.2-75.6 44.6-92.3 65.3-28.6 130 39.5 99 104-16.3 34-64.1 51.5-100.3 37zm49-90.2.1-18.5-18.7.1-18.8-.1.2 16.7-.2 20.8 18.8-.2 18.7.2z" transform="translate(43.2 202.2)"/><path style="stroke-width:1.01734" d="M448.5 545.6V432.1h228v227.1h-228Zm188.9 38.7.1-21-75 1.2-75-1.2.5 20.7-.5 16.8 75-.6 75 .6zm-19-75.4.4-20.6-56.3.5-56.2-.5.1 20.6-.1 16.9 56.5-.2 56 .2z" transform="translate(43.2 202.2)"/><path style="stroke-width:1.08005" d="M655.6 179.5C611 152.5 603 95.3 639 59.7c31.5-31.3 72.8-32.4 105.8-2.9a75.1 75.1 0 0 1-50.3 132.4 81.8 81.8 0 0 1-39-9.7zm56.7-87.2.2-16.5-19 .5-18.5-.5.1 17.6-.1 19.9 17-.4 20.5.4z" transform="translate(43.2 202.2)"/></g><g><path d="M1055.7 334.3h-18.8a18.8 18.8 0 0 0-18.7 18.7v18.8a112.6 112.6 0 0 0-112.5 112.5v56.2a56.2 56.2 0 0 0 56.2 56.3h18.8v37.5H849.4V521.8a56.2 56.2 0 0 0-56.2-56.3h-63.4l19-38.1a112.9 112.9 0 1 0-40.3-3.2l-20.6 41.3h-7.2a110 110 0 0 1-61.8-32 18.8 18.8 0 0 0-26.4 0 110 110 0 0 1-61.8 32h-7.2L503 424.3a112.2 112.2 0 1 0-40.3 3.1l19 38.1h-63.4a56.2 56.2 0 0 0-56.3 56.3v112.5H230.7v-37.5h18.7a56.2 56.2 0 0 0 56.3-56.3v-56.2a112.6 112.6 0 0 0-112.5-112.5V353a18.8 18.8 0 0 0-18.8-18.7h-18.7A112.6 112.6 0 0 0 43.2 446.8v93.7a56.2 56.2 0 0 0 56.2 56.3h18.8V728a18.8 18.8 0 0 0 18.7 18.8h225v37.5H230.7a18.8 18.8 0 0 0-18.8 18.7v225a18.7 18.7 0 0 0 10.4 16.9l75 37.5a18.7 18.7 0 0 0 27.1-16.9V896.8H887v168.7a18.7 18.7 0 0 0 27.2 16.9l75-37.5a18.8 18.8 0 0 0 10.3-16.9V803a18.8 18.8 0 0 0-18.7-18.7H849.4v-37.5h225a18.8 18.8 0 0 0 18.8-18.8V596.8h18.7a56.2 56.2 0 0 0 56.3-56.3v-93.7a112.6 112.6 0 0 0-112.5-112.5zm-768.8 700.9-37.5-18.8V896.8H287zm75-176H249.4v-37.4H362zm-262.5-300a18.8 18.8 0 0 1-18.7-18.7v-18.7h37.5v-37.5H80.7v-37.5a75 75 0 0 1 75-75v187.5zm93.8 150h-37.5V596.9h37.5zm0-150v-150a75 75 0 0 1 75 75v56.3a18.8 18.8 0 0 1-18.8 18.8zm168.7 150H230.7v-37.4h131.2zm300-393.7a75 75 0 1 1 150 0 75 75 0 0 1-150 0Zm-187.5 75a75 75 0 1 1 0-150 75 75 0 0 1 0 150zm243.8 468.8h-225v-225h225zm93.7 0h-56.2V615.5a18.8 18.8 0 0 0-18.8-18.7H474.4a18.8 18.8 0 0 0-18.7 18.7v243.8h-56.3V521.8a18.8 18.8 0 0 1 18.8-18.8h112.5c27.7-2.1 54-13 75-31.3 21 18.2 47.3 29.2 75 31.3h112.5a18.8 18.8 0 0 1 18.7 18.8zm150 157.1-37.5 18.8V896.8H962zm0-194.6v37.5H849.4v-37.5Zm18.8-112.5H849.4v-37.5h131.3Zm-18.8-150a18.8 18.8 0 0 1-18.7-18.8v-56.2a75 75 0 0 1 75-75v150zm93.8 150h-37.5V596.8h37.5zm75-225h-37.5v37.5h37.5v18.7a18.8 18.8 0 0 1-18.8 18.8h-56.2V371.8a75 75 0 0 1 75 75z"/><path d="M549.4 690.5H662V728H549.4zM530.7 765.5h150V803h-150ZM455.7 278h37.5v37.5h-37.5ZM718.2 278h37.5v37.5h-37.5z"/></g></svg>