<svg version="1.1" viewBox="0 0 128.58 133.96" xmlns="http://www.w3.org/2000/svg">
	<defs>
		<filter id="filter188" style="color-interpolation-filters:sRGB">
			<feGaussianBlur in="SourceGraphic" result="result6" stdDeviation="3" />
			<feColorMatrix in="SourceGraphic" result="result7" values="1 0 0 0 0 0 1 0 0 0 0 0 1 0 0 0 0 0 1 0 " />
			<feComposite in="result6" in2="result7" operator="in" />
		</filter>
		<style>
			<![CDATA[
			.star {
			filter: url(#filter188);
			fill: #66ff2a;
			stroke: #000000;
			stroke-width: 2;
			}
			]]>
		</style>
	</defs>
	<g transform="translate(-25.47 -63.527)">
		<path class="star" d="m101.3 186.31c-2.5162 0.7435-25.135-24.475-27.608-25.353-2.4727-0.8775-35.929 4.442-37.413 2.2786-1.4847-2.1633 15.51-31.468 15.581-34.091 0.07044-2.6228-15.327-32.797-13.728-34.878s34.721 5.027 37.237 4.2835c2.5162-0.7435 26.456-24.712 28.929-23.834 2.4727 0.87749 5.9483 34.575 7.433 36.738 1.4847 2.1633 31.678 17.525 31.607 20.147-0.0704 2.6228-31.044 16.341-32.643 18.422s-6.878 35.543-9.3942 36.286z" />
	</g>
</svg>
