<?xml version="1.0" encoding="UTF-8"?>
<svg width="210mm" height="297mm" version="1.1" viewBox="0 0 210 297" xmlns="http://www.w3.org/2000/svg" xmlns:cc="http://creativecommons.org/ns#" xmlns:dc="http://purl.org/dc/elements/1.1/" xmlns:rdf="http://www.w3.org/1999/02/22-rdf-syntax-ns#">
 <metadata>
  <rdf:RDF>
   <cc:Work rdf:about="">
    <dc:format>image/svg+xml</dc:format>
    <dc:type rdf:resource="http://purl.org/dc/dcmitype/StillImage"/>
    <dc:title/>
   </cc:Work>
  </rdf:RDF>
 </metadata>
 <path d="m85.423 101.3c2.0088 2.4258-2.2788 3.9046-4.0317 3.3388-4.7504-1.5334-4.9461-7.8212-2.6458-11.402 4.1147-6.4058 13.23-6.3446 18.773-1.9529 8.1344 6.445 7.7923 18.715 1.2599 26.143-8.7067 9.9009-24.227 9.2616-33.514 0.56699-11.686-10.941-10.742-29.753 0.12596-40.884 13.163-13.482 35.286-12.229 48.255 0.81891 15.283 15.377 13.72 40.824-1.5119 55.625-17.586 17.089-46.365 15.214-62.996-2.2048-18.898-19.792-16.71-51.908 2.8978-70.367 21.997-20.708 57.452-18.207 77.737 3.5907 22.52 24.2 19.705 62.998-4.2837 85.108" style="fill-rule:evenodd;stroke-width:.26458;stroke:#000"/>
</svg>
