<svg viewBox="0 0 128.6 134" xmlns="http://www.w3.org/2000/svg"><defs><filter id="a" style="color-interpolation-filters:sRGB"><feGaussianBlur in="SourceGraphic" result="result6" stdDeviation="3"/><feColorMatrix in="SourceGraphic" result="result7" values="1 0 0 0 0 0 1 0 0 0 0 0 1 0 0 0 0 0 1 0"/><feComposite in="result6" in2="result7" operator="in"/></filter></defs><path d="M101.3 186.3c-2.5.8-25.1-24.5-27.6-25.3-2.5-1-36 4.4-37.4 2.2-1.5-2.1 15.5-31.4 15.6-34 0-2.7-15.4-32.9-13.8-35s34.8 5 37.3 4.4c2.5-.8 26.4-24.8 28.9-23.9 2.5.9 6 34.6 7.4 36.8 1.5 2.1 31.7 17.5 31.6 20.1 0 2.6-31 16.3-32.6 18.4s-6.9 35.6-9.4 36.3z" transform="translate(-25.5 -63.5)" style="filter:url(#a);fill:#ffd42a;stroke:#000;stroke-width:2"/></svg>