<svg xmlns="http://www.w3.org/2000/svg" viewBox="0 0 1125 882.2"><g style="display:inline"><g style="stroke:none;stroke-dasharray:none;stroke-miterlimit:4;fill:#f60"><path d="m354.5 484.7.7-173.5 6.6-5.7 6.6-5.7h64c78 0 91.4-2.7 122.4-24.3l8.3-5.8 9.5 6.5c31 21.2 43.2 23.6 121.3 23.6h63.9l6.6 5.7 6.6 5.7.7 173.5.6 173.5H744l-31.4-1.1-.5-124.6c-.3-77.9-3.4-126.2-4.8-128.8-4.9-9-7.2-7.7-144-7.7-137 0-142.3-.7-147.2 8.3-1.4 2.6-1.5 49.7-2.3 127.6L412.5 657l-30.2 1h-28.4zM41 351.1a20 20 0 0 1-5.3-20l1.8-11.5 19.4-.5 18.1.5-1.4-19.2 1.4-18.3-18.4.6-19.1-.6-.7-27.8c-.5-24.1 1.5-29.6 8.6-44 10.9-22.1 33-42 56.4-40.4l10.7-.3 1 94-1 93.5-32 1c-29.2 1-34-1.5-39.5-7zM1011 262.6v-94.7l10.7 1.6a77.8 77.8 0 0 1 58.8 39.9c7.4 14.2 6.5 19.4 7.5 44.2l-.5 28.5-18.7.7-18.8-.7.2 19.2-.2 18.3 19-.4 18.5.4 1 13.9c.6 9.6-1.3 14.2-6.2 18.8-5.9 5.7-7.4 5-38.7 5H1011zM206.1 638.5v-19.2h112.6v38.5H206.1zM223.2 823.2l-17.5-9.2V694.3h38.9v68c0 37.6.2 70.5-1 70.4-1 0-11-4.6-20.4-9.5zM805.4 638.4v-19.6H919.1V658H805.4zM880.5 763v-68.9h38.2v121.2l-17.7 8.4c-9.8 4.6-19.2 9.4-20 9.4-.7 0-.5-32.1-.5-70zM804.5 489V469h133.2v39.7H804.5zM974.5 450.6v-57.8h39.5v115.6h-39.5zM905.2 353.5c-7.4-7.4-8.3-14.3-7-54.2.8-30 2-38.4 6.3-48 11-24.4 37.5-45 62-48.3l11.3-1.5v156.8H944c-30.3 0-34.3-.5-38.8-4.8zM111.7 450.8v-57.3h38.6V508.2h-38.6zM187.3 488.2v-19.4h132.5v38.9H187.3ZM150 281.2v-78.8l8.1 1.7a89.6 89.6 0 0 1 60.8 45.7c6.5 13.4 7 16.1 7.7 55.3.6 32.3 0 42.1-2.7 45.8-4.4 5.8-20.5 8.7-50.9 8.9l-23 .1z"/></g><g style="stroke:none;stroke-dasharray:none;stroke-miterlimit:4;fill:#ffc69d"><path d="M400.9 184.5c-16.4-6.5-37-29.7-43.3-48.6-12.4-37 6.2-75.6 44.6-92.3 65.3-28.6 130 39.5 99 104-16.3 34-64.1 51.5-100.3 37zm49-90.2.1-18.5-18.7.1-18.8-.1.2 16.7-.2 20.8 18.8-.2 18.7.2zM448.5 545.6V432.1h228v227.1h-228Zm188.9 38.7.1-21-75 1.2-75-1.2.5 20.7-.5 16.8 75-.6 75 .6zm-19-75.4.4-20.6-56.3.5-56.2-.5.1 20.6-.1 16.9 56.5-.2 56 .2zM655.6 179.5C611 152.5 603 95.3 639 59.7c31.5-31.3 72.8-32.4 105.8-2.9a75.1 75.1 0 0 1-50.3 132.4 81.8 81.8 0 0 1-39-9.7zm56.7-87.2.2-16.5-19 .5-18.5-.5.1 17.6-.1 19.9 17-.4 20.5.4z"/></g></g><g style="display:inline"><path d="M1012.5 132h-18.7a18.8 18.8 0 0 0-18.8 18.8v18.8A112.6 112.6 0 0 0 862.5 282v56.2a56.2 56.2 0 0 0 56.3 56.3h18.7V432H806.3V319.6a56.2 56.2 0 0 0-56.3-56.3h-63.4l19-38.1a112.9 112.9 0 1 0-40.3-3.2l-20.6 41.3h-7.2a110 110 0 0 1-61.8-32 18.8 18.8 0 0 0-26.4 0 110 110 0 0 1-61.8 32h-7.2l-20.6-41.2a112.2 112.2 0 1 0-40.3 3.1l19 38.1H375a56.2 56.2 0 0 0-56.2 56.3V432H187.5v-37.5h18.8a56.2 56.2 0 0 0 56.2-56.3v-56.2A112.6 112.6 0 0 0 150 169.6v-18.8a18.8 18.8 0 0 0-18.8-18.7h-18.7A112.6 112.6 0 0 0 0 244.6v93.7a56.2 56.2 0 0 0 56.3 56.3H75v131.2a18.8 18.8 0 0 0 18.8 18.8h225V582H187.5a18.8 18.8 0 0 0-18.8 18.7v225a18.7 18.7 0 0 0 10.4 16.9l75 37.5a18.7 18.7 0 0 0 27.1-16.9V694.6h562.5v168.7a18.7 18.7 0 0 0 27.2 16.9l75-37.5a18.8 18.8 0 0 0 10.3-16.9v-225a18.8 18.8 0 0 0-18.7-18.7H806.2v-37.5h225a18.8 18.8 0 0 0 18.8-18.8V394.6h18.7a56.2 56.2 0 0 0 56.3-56.3v-93.7A112.6 112.6 0 0 0 1012.5 132zM243.8 833l-37.5-18.8V694.6h37.5zm75-176H206.3v-37.4h112.5zM56.3 357a18.8 18.8 0 0 1-18.8-18.7v-18.7H75V282H37.5v-37.5a75 75 0 0 1 75-75V357zM150 507h-37.5V394.7H150zm0-150V207a75 75 0 0 1 75 75v56.3a18.8 18.8 0 0 1-18.7 18.8zm168.8 150H187.5v-37.4h131.3zm300-393.7a75 75 0 1 1 150 0 75 75 0 0 1-150 0Zm-187.5 75a75 75 0 1 1 0-150 75 75 0 0 1 0 150zM675 657.1H450V432h225zm93.8 0h-56.3V413.3a18.8 18.8 0 0 0-18.7-18.7H431.3a18.8 18.8 0 0 0-18.8 18.7v243.8h-56.3V319.6a18.8 18.8 0 0 1 18.8-18.8h112.5c27.7-2.1 54-13 75-31.3 21 18.2 47.3 29.2 75 31.3H750a18.8 18.8 0 0 1 18.8 18.8zm150 157.1L881.3 833V694.6h37.5zm0-194.6V657H806.3v-37.5ZM937.5 507H806.3v-37.5h131.2Zm-18.7-150a18.8 18.8 0 0 1-18.8-18.8v-56.2a75 75 0 0 1 75-75v150zm93.7 150H975V394.6h37.5zm75-225H1050v37.5h37.5v18.7a18.8 18.8 0 0 1-18.7 18.8h-56.3V169.6a75 75 0 0 1 75 75z"/><path d="M506.3 488.3h112.5v37.5H506.3zM487.5 563.3h150v37.5h-150ZM412.5 75.8H450v37.5h-37.5ZM675 75.8h37.5v37.5H675z"/></g></svg>